LG_Walk_Slower02																		
version=1																		
nRows=67																		
nColumns=19																		
inDegrees=yes																		
endheader																		
time	ground_force2_vx	ground_force2_vy	ground_force2_vz	ground_force2_px	ground_force2_py	ground_force2_pz	ground_torque2_x	ground_torque2_y	ground_torque2_z	ground_force1_vx	ground_force1_vy	ground_force1_vz	ground_force1_px	ground_force1_py	ground_force1_pz	ground_torque1_x	ground_torque1_y	ground_torque1_z
4.915	0	0	0	0.2	0	-0.3	0	0	0	5.194457	38.935619	10.359852	-0.030152	0	0.422194	0	0.304241	0
4.916	0	0	0	0.2	0	-0.3	0	0	0	5.194457	40.464245	11.691635	-0.030152	0	0.422194	0	0.304241	0
4.917	0	0	0	0.2	0	-0.3	0	0	0	4.654553	40.819145	12.083286	-0.030152	0	0.409414	-1.00E-06	0.174203	0
4.918	0	0	0	0.2	0	-0.3	0	0	0	4.654553	44.09552	12.94516	-0.034897	0	0.392374	-1.00E-06	0.038214	0
4.919	0	0	0	0.2	0	-0.3	0	0	0	4.654553	49.250336	14.433926	-0.035079	0	0.391105	-1.00E-06	0.038214	0
4.92	0	0	0	0.2	0	-0.3	0	0	0	4.732404	49.250336	14.982483	-0.034897	0	0.391105	-1.00E-06	-0.017923	0
4.921	0	0	0	0.2	0	-0.3	0	0	0	4.182395	47.514938	16.158001	-0.025889	0	0.40507	-1.00E-06	-0.285541	0
4.922	0	0	0	0.2	0	-0.3	0	0	0	4.259526	45.297085	17.09837	-0.018944	0	0.40507	-1.00E-06	-0.374898	0
4.923	0	0	0	0.2	0	-0.3	0	0	0	4.259526	47.514938	17.490105	-0.025889	0	0.382976	-1.00E-06	-0.37976	0
4.924	0	0	0	0.2	0	-0.3	0	0	0	4.260247	48.393673	17.881878	-0.026392	0	0.382976	0.00E+00	-0.385106	0
4.925	0	0	0	0.2	0	-0.3	0	0	0	4.260247	54.387012	18.978703	-0.027002	0	0.382294	-1.00E-06	-0.385106	0
4.926	0	0	0	0.2	0	-0.3	0	0	0	3.248183	54.388214	19.135246	-0.031533	0	0.382294	-1.00E-06	-0.483434	0
4.927	0	0	0	0.2	0	-0.3	0	0	0	3.171055	58.521263	20.545559	-0.031533	0	0.375751	-1.00E-06	-0.483434	0
4.928	0	0	0	0.2	0	-0.3	0	0	0	3.094647	62.108879	21.172363	-0.032413	0	0.375265	-2.00E-06	-0.527202	0
4.929	0	0	0	0.2	0	-0.3	0	0	0	3.016794	62.623062	22.034077	-0.036807	0	0.375751	-1.00E-06	-0.475696	0
4.93	0	0	0	0.2	0	-0.3	0	0	0	2.782522	66.732918	22.190456	-0.040964	0	0.381521	-1.00E-06	-0.464101	0
4.931	0	0	0	0.2	0	-0.3	0	0	0	1.924717	69.662529	22.504185	-0.044693	0	0.381521	-1.00E-06	-0.464101	0
4.932	0	0	0	0.2	0	-0.3	0	0	0	1.924717	72.388451	23.20916	-0.044693	0	0.371583	-1.00E-06	-0.516892	0
4.933	0	0	0	0.2	0	-0.3	0	0	0	2.1626	72.388451	23.287327	-0.044693	0	0.371583	-2.00E-06	-0.516892	0
4.934	0	0	0	0.2	0	-0.3	0	0	0	2.1626	78.064743	23.83596	-0.04383	0	0.371583	-2.00E-06	-0.516892	0
4.935	0	0	0	0.2	0	-0.3	0	0	0	2.084028	80.462814	24.305946	-0.04475	0	0.369304	-2.00E-06	-0.540767	-1.00E-06
4.936	0	0	0	0.2	0	-0.3	0	0	0	2.008343	83.208786	24.854221	-0.04475	0	0.368283	-2.00E-06	-0.540767	-1.00E-06
4.937	0	0	0	0.2	0	-0.3	0	0	0	2.006897	87.508476	24.854221	-0.04475	0	0.361615	-2.00E-06	-0.609885	0
4.938	0	0	0	0.2	0	-0.3	0	0	0	1.382647	88.872803	24.854176	-0.045887	0	0.359108	-1.00E-06	-0.510755	0
4.939	0	0	0	0.2	0	-0.3	0	0	0	1.308403	93.184059	24.854176	-0.047502	0	0.357182	-2.00E-06	-0.51622	0
4.94	0	0	0	0.2	0	-0.3	0	0	0	1.307684	95.556641	25.637482	-0.047502	0	0.357182	-1.00E-06	-0.51622	-1.00E-06
4.941	0	0	0	0.2	0	-0.3	0	0	0	1.307684	99.167427	25.637482	-0.040872	0	0.357182	-2.00E-06	-0.586765	-1.00E-06
4.942	0	0	0	0.2	0	-0.3	0	0	0	1.076294	99.167427	26.107548	-0.040872	0	0.354342	-2.00E-06	-0.731289	0
4.943	0	0	0	0.2	0	-0.3	0	0	0	0.684875	104.853004	26.107388	-0.047129	0	0.350596	-2.00E-06	-0.630387	0
4.944	0	0	0	0.2	0	-0.3	0	0	0	0.684875	106.396683	26.42075	-0.04728	0	0.349919	-3.00E-06	-0.630387	-1.00E-06
4.945	0	0	0	0.2	0	-0.3	0	0	0	0.609188	114.805084	26.342339	-0.047254	0	0.349919	-3.00E-06	-0.586796	-1.00E-06
4.946	0	0	0	0.2	0	-0.3	0	0	0	0.062788	115.119095	26.342339	-0.04727	0	0.348765	-3.00E-06	-0.469193	0
4.947	0	0	0	0.2	0	-0.3	0	0	0	-0.329351	116.158981	26.342339	-0.04727	0	0.34795	-1.00E-06	-0.586796	0
4.948	0	0	0	0.2	0	-0.3	0	0	0	-0.329351	118.737968	26.49876	-0.047941	0	0.34795	-1.00E-06	-0.56614	0
4.949	0	0	0	0.2	0	-0.3	0	0	0	0.066397	125.255157	26.49876	-0.048837	0	0.34706	0.00E+00	-0.603906	0
4.95	0	0	0	0.2	0	-0.3	0	0	0	0.224985	126.281578	26.420105	-0.049392	0	0.347808	0.00E+00	-0.56614	0
4.951	0	0	0	0.2	0	-0.3	0	0	0	0.458538	135.214157	26.420105	-0.054539	0	0.347808	0	-0.603906	-1.00E-06
4.952	0	0	0	0.2	0	-0.3	0	0	0	0.458538	136.412216	26.654776	-0.054539	0	0.347808	-2.00E-06	-0.463617	-1.00E-06
4.953	0	0	0	0.2	0	-0.3	0	0	0	1.092171	137.442535	27.281582	-0.054539	0	0.342392	-2.00E-06	-0.463617	-1.00E-06
4.954	0	0	0	0.2	0	-0.3	0	0	0	1.167133	145.182098	27.281582	-0.055072	0	0.342042	-1.00E-06	-0.298231	0.00E+00
4.955	0	0	0	0.2	0	-0.3	0	0	0	2.502146	149.973557	27.751524	-0.055072	0	0.339365	-1.00E-06	-0.284462	0
4.956	0	0	0	0.2	0	-0.3	0	0	0	2.582884	150.493942	27.751524	-0.054957	0	0.338958	-1.00E-06	-0.284462	0
4.957	0	0	0	0.2	0	-0.3	0	0	0	2.582884	151.351028	27.751404	-0.054957	0	0.338931	-3.00E-06	-0.284462	-1.00E-06
4.958	0	0	0	0.2	0	-0.3	0	0	0	2.818601	157.200165	27.751404	-0.055057	0	0.335902	-4.00E-06	-0.16874	-1.00E-06
4.959	0	0	0	0.2	0	-0.3	0	0	0	3.366443	158.39476	27.829653	-0.05536	0	0.335902	-4.00E-06	-0.16403	-1.00E-06
4.96	0	0	0	0.2	0	-0.3	0	0	0	3.995744	161.308899	28.84827	-0.05536	0	0.336535	-3.00E-06	-0.16874	-1.00E-06
4.961	0	0	0	0.2	0	-0.3	0	0	0	4.155777	163.021515	29.553167	-0.054216	0	0.336535	-3.00E-06	-0.069045	-1.00E-06
4.962	0	0	0	0.2	0	-0.3	0	0	0	4.470068	166.454071	30.101763	-0.054162	0	0.33643	-3.00E-06	-0.075111	-1.00E-06
4.963	0	0	0	0.2	0	-0.3	0	0	0	4.470068	168.188721	30.571823	-0.054162	0	0.332111	-4.00E-06	-0.069045	-1.00E-06
4.964	0	0	0	0.2	0	-0.3	0	0	0	5.956451	176.610229	31.825317	-0.056483	0	0.332111	-4.00E-06	-0.036471	-1.00E-06
4.965	0	0	0	0.2	0	-0.3	0	0	0	5.960058	180.3703	32.060387	-0.056483	0	0.332329	-4.00E-06	0.059629	0
4.966	0	0	0	0.2	0	-0.3	0	0	0	6.355085	180.877914	32.765404	-0.056483	0	0.332329	-3.00E-06	0.114308	0
4.967	0	0	0	0.2	0	-0.3	0	0	0	6.8258	185.536301	32.843853	-0.056019	0	0.331103	-2.00E-06	0.205515	0
4.968	0	0	0	0.2	0	-0.3	0	0	0	7.219384	185.691391	34.097462	-0.057018	0	0.330633	-1.00E-06	0.261576	-1.00E-06
4.969	0	0	0	0.2	0	-0.3	0	0	0	8.315792	189.141312	35.037712	-0.057018	0	0.331103	-1.00E-06	0.264801	-1.00E-06
4.97	0	0	0	0.2	0	-0.3	0	0	0	9.019336	195.660797	35.194412	-0.057818	0	0.329397	-3.00E-06	0.268348	0
4.971	0	0	0	0.2	0	-0.3	0	0	0	9.409313	195.660797	36.212952	-0.057818	0	0.326779	-3.00E-06	0.264801	0.00E+00
4.972	0	0	0	0.2	0	-0.3	0	0	0	10.042945	197.568268	36.526234	-0.057894	0	0.326779	-3.00E-06	0.268348	1.00E-06
4.973	0	0	0	0.2	0	-0.3	0	0	0	10.351461	202.358963	37.779842	-0.058001	0	0.32568	-3.00E-06	0.405818	0.00E+00
4.974	0	0	0	0.2	0	-0.3	0	0	0	11.454364	203.73912	37.858055	-0.058251	0	0.326773	-2.00E-06	0.475684	-1.00E-06
4.975	0	0	0	0.2	0	-0.3	0	0	0	11.611509	207.345245	39.111588	-0.058001	0	0.326773	-2.00E-06	0.483162	-1.00E-06
4.976	0	0	0	0.2	0	-0.3	0	0	0	12.943633	211.472122	39.111626	-0.057947	0	0.326773	-4.00E-06	0.475684	0
4.977	0	0	0	0.2	0	-0.3	0	0	0	13.252874	211.974686	39.111626	-0.057947	0	0.325004	-4.00E-06	0.522557	0
4.978	0	0	0	0.2	0	-0.3	0	0	0	13.412184	212.677521	39.111626	-0.058466	0	0.324652	-4.00E-06	0.522557	0
4.979	0	0	0	0.2	0	-0.3	0	0	0	13.882174	219.386795	39.503517	-0.059796	0	0.324652	-5.00E-06	0.565113	0.00E+00
4.98	0	0	0	0.2	0	-0.3	0	0	0	14.50787	219.386795	39.581604	-0.059796	0	0.324652	-5.00E-06	0.565113	0
4.981	0	0	0	0.2	0	-0.3	0	0	0	15.289987	220.915436	39.816479	-0.059432	0	0.324597	-3.00E-06	0.454094	0
